# xmcd
#
# Track frame offsets: 
#        150
#        18259
#        33001
#        45253
#        60183
#        74340
#        91470
#        106545
#        120097
#        132633
#        148203
#        166042
#        181305
#        198348
#        215100
#        229689
#        243908
#        256486
#
# Disc length: 3613 seconds
#
# Revision: 1
# Processed by: cddbd v1.5.2PL0 Copyright (c) Steve Scherf et al.
# Submitted via: ExactAudioCopyFreeDBPlugin 1.0
#
DISCID=e80e1b12
DTITLE=古筝 - 筝心筝意 (DiscA)
DYEAR=1900
DGENRE=Folk
TTITLE0=我只在乎你
TTITLE1=珊瑚恋
TTITLE2=我怎能离开你
TTITLE3=今宵多珍重
TTITLE4=庭院深深
TTITLE5=你可知道我爱谁
TTITLE6=心有千千结
TTITLE7=水仙
TTITLE8=月满西楼
TTITLE9=月光小夜曲
TTITLE10=爱的故事
TTITLE11=水悠悠
TTITLE12=莫忘我的爱
TTITLE13=红楼梦
TTITLE14=蒙蒙细雨忆当年
TTITLE15=秋缠
TTITLE16=我家在哪里
TTITLE17=你那好冷的手
EXTD=
EXTT0=
EXTT1=
EXTT2=
EXTT3=
EXTT4=
EXTT5=
EXTT6=
EXTT7=
EXTT8=
EXTT9=
EXTT10=
EXTT11=
EXTT12=
EXTT13=
EXTT14=
EXTT15=
EXTT16=
EXTT17=
PLAYORDER=
